<svg id="Layer_2" height="512" viewBox="0 0 128 128" width="512" xmlns="http://www.w3.org/2000/svg" data-name="Layer 2"><path d="m128 87.131a20.059 20.059 0 0 0 -18.354-19.888l-14.18-1.143 3.175-17.4h12.642a1.75 1.75 0 0 0 1.237-.513l8.342-8.343a5.749 5.749 0 0 0 -8.131-8.131l-5.487 5.486h-6.5l1.969-10.792 5.138-1.438a1.75 1.75 0 0 0 1.278-1.686v-11a1.75 1.75 0 0 0 -2.222-1.686l-25.161 7.051a16.309 16.309 0 0 0 -11.871 15.652 1.749 1.749 0 0 0 .692 1.395 1.777 1.777 0 0 0 1.529.291l15.973-4.471-6.295 34.485-39.088-3.139-7.154-23.111h6.468a1.75 1.75 0 0 0 1.75-1.75 12.1 12.1 0 0 0 -12.083-12.083h-8.058a11.538 11.538 0 0 0 -11.525 11.525 7.295 7.295 0 0 0 10.6 6.517l5.489 17.735-2.955-.237a23.351 23.351 0 1 0 -1.872 46.626h.03l-7.148 7.41a1.75 1.75 0 0 0 1.26 2.965h20.379a1.752 1.752 0 0 0 1.26-.535l9.492-9.84h30.762l9.492 9.84a1.752 1.752 0 0 0 1.26.535h20.375a1.75 1.75 0 0 0 1.26-2.965l-7.148-7.41h3.428a19.974 19.974 0 0 0 19.952-19.952zm-45.311-66.111 22.936-6.42v7.365l-32.025 8.965a12.808 12.808 0 0 1 9.089-9.91zm9.13 8.445 7.14-2-2.04 11.178a1.75 1.75 0 0 0 1.722 2.064h9.327a1.75 1.75 0 0 0 1.237-.513l6-6a2.25 2.25 0 0 1 3.182 3.182l-7.829 7.83h-13.377a1.751 1.751 0 0 0 -1.722 1.436l-3.5 19.178-6.678-.537zm-72.419 10.789a3.816 3.816 0 0 1 -3.812-3.812 8.035 8.035 0 0 1 8.025-8.025h8.058a8.6 8.6 0 0 1 8.4 6.833h-12.154a1.752 1.752 0 0 0 -1.051.351l-5.184 3.891a3.832 3.832 0 0 1 -2.282.762zm9.105-1.5h3.367l7.061 22.809-6.998-.563-6.235-20.147zm-25.005 44.978a19.857 19.857 0 0 1 19.8-19.853c.544 0 86.067 6.853 86.067 6.853a16.452 16.452 0 0 1 -1.317 32.852h-84.7a19.874 19.874 0 0 1 -19.85-19.852zm33.624 30.226h-15.513l6.632-6.875h15.513zm69.265 0h-15.513l-6.632-6.875h15.513z"/><path d="m34.29 90.773 10.3 4.813a1.846 1.846 0 0 0 .74.164h13.67a1.75 1.75 0 0 0 1.75-1.75v-2.083a6.758 6.758 0 0 0 -6.75-6.75h-3.667a6.759 6.759 0 0 0 -6.717 6.1l-7.831-3.658a13.117 13.117 0 1 0 -1.5 3.165zm12.793 1.144a3.254 3.254 0 0 1 3.25-3.25h3.667a3.254 3.254 0 0 1 3.25 3.25v.333h-10.167zm-23.731 1.338a9.573 9.573 0 1 1 9.212-7.155l-8.472-3.958a1.75 1.75 0 1 0 -1.48 3.172l8.469 3.956a9.51 9.51 0 0 1 -7.729 3.985z"/><path d="m85.375 95.306a1.75 1.75 0 0 0 1.75 1.75h21.007a9.84 9.84 0 0 0 0-19.681h-21.007a1.75 1.75 0 0 0 0 3.5h13.493a9.8 9.8 0 0 0 0 12.681h-13.493a1.75 1.75 0 0 0 -1.75 1.75zm16.417-8.091a6.34 6.34 0 1 1 6.34 6.341 6.347 6.347 0 0 1 -6.34-6.341z"/></svg>