<?xml version="1.0"?>
<svg xmlns="http://www.w3.org/2000/svg" id="Layer_2" data-name="Layer 2" viewBox="0 0 128 128" width="512" height="512"><title>WEIGHT BENCH</title><path d="M105.542,46.379a1.75,1.75,0,0,0,1.341.625h8.007a1.75,1.75,0,0,0,1.341-.625l3.358-4A1.75,1.75,0,0,0,120,41.251v-10.5h6.252A1.75,1.75,0,0,0,128,29V23a1.75,1.75,0,0,0-1.75-1.75H120v-10.5a1.75,1.75,0,0,0-.409-1.125l-3.358-4A1.75,1.75,0,0,0,114.89,5h-8.007a1.75,1.75,0,0,0-1.341.625l-3.358,4a1.75,1.75,0,0,0-.409,1.125v10.5H26.226v-10.5a1.75,1.75,0,0,0-.409-1.125l-3.358-4A1.75,1.75,0,0,0,21.117,5H13.11a1.75,1.75,0,0,0-1.341.625l-3.358,4A1.75,1.75,0,0,0,8,10.757v10.5H1.75A1.75,1.75,0,0,0,0,23v6a1.75,1.75,0,0,0,1.75,1.75H8v10.5a1.75,1.75,0,0,0,.409,1.125l3.358,4A1.75,1.75,0,0,0,13.11,47h8.007a1.75,1.75,0,0,0,1.341-.625l.268-.319v63.749H5.75A5.756,5.756,0,0,0,0,115.559v5.688A1.75,1.75,0,0,0,1.75,123h124.5a1.75,1.75,0,0,0,1.75-1.75v-5.687a5.756,5.756,0,0,0-5.75-5.75H105.274V46.06ZM124.5,24.754v2.5H120v-2.5Zm-19.226-13.36L107.7,8.5h6.374l2.425,2.89V40.614l-2.425,2.89H107.7l-2.425-2.89Zm-3.5,13.36v2.5H26.226v-2.5ZM73.967,109.809V98.863H86.125a1.75,1.75,0,0,0,1.75-1.75V92.1a7.772,7.772,0,0,0-7.089-7.73V56.3A9.494,9.494,0,0,0,71.3,46.816H56.7A9.494,9.494,0,0,0,47.214,56.3V84.37a7.772,7.772,0,0,0-7.089,7.73v5.013a1.75,1.75,0,0,0,1.75,1.75H54.033v10.945H33.757V30.754H94.243v79.055Zm3.319-25.473H50.714V56.3A5.99,5.99,0,0,1,56.7,50.316H71.3A5.99,5.99,0,0,1,77.286,56.3Zm-29.4,3.5H80.11A4.269,4.269,0,0,1,84.375,92.1v3.263H43.625V92.1A4.269,4.269,0,0,1,47.89,87.836Zm9.644,11.027H70.467v10.945H57.533ZM3.5,27.254v-2.5H8v2.5ZM20.3,43.5H13.927L11.5,40.614V11.394L13.927,8.5H20.3l2.425,2.89V40.614Zm5.925-12.75h4.031v79.055H26.226Zm98.274,84.8V119.5H3.5v-3.937a2.253,2.253,0,0,1,2.25-2.25h116.5A2.253,2.253,0,0,1,124.5,115.559Zm-26.757-5.75V30.754h4.031v79.055Z"/><path d="M59.561,59.446h8.879a1.75,1.75,0,0,0,0-3.5H59.561a1.75,1.75,0,0,0,0,3.5Z"/><path d="M70.391,64.225H57.609a1.75,1.75,0,0,0,0,3.5H70.391a1.75,1.75,0,0,0,0-3.5Z"/><path d="M68.439,72.5H59.561a1.75,1.75,0,0,0,0,3.5h8.879a1.75,1.75,0,0,0,0-3.5Z"/></svg>
