<svg id="Layer_2" height="512" viewBox="0 0 128 128" width="512" xmlns="http://www.w3.org/2000/svg" data-name="Layer 2"><path d="m121.25 47.242h-4.779a31.458 31.458 0 0 0 -52.471-23.326 31.458 31.458 0 0 0 -52.471 23.326h-4.779a6.75 6.75 0 0 0 0 13.5h7.774a31.27 31.27 0 0 0 6.212 8.847l42.026 42.026a1.749 1.749 0 0 0 2.475 0l42.026-42.026a31.294 31.294 0 0 0 6.213-8.847h7.774a6.75 6.75 0 0 0 0-13.5zm-98.039-19.679a28 28 0 0 1 39.552 0 1.749 1.749 0 0 0 2.475 0 27.962 27.962 0 0 1 47.737 19.679h-21.117a1.748 1.748 0 0 0 -1.276.553l-11.57 12.34-28.747-30.663a1.75 1.75 0 0 0 -2.554 0l-16.659 17.77h-16.027a28.01 28.01 0 0 1 8.186-19.679zm81.578 39.552-40.789 40.785-40.789-40.785a27.829 27.829 0 0 1 -4.772-6.373h17.7a1.75 1.75 0 0 0 1.277-.553l11.569-12.34 28.75 30.663a1.749 1.749 0 0 0 2.553 0l16.66-17.77h12.613a27.869 27.869 0 0 1 -4.772 6.373zm16.461-9.873h-25.06a1.748 1.748 0 0 0 -1.276.553l-15.9 16.961-28.749-30.663a1.75 1.75 0 0 0 -2.554 0l-12.327 13.149h-28.634a3.25 3.25 0 0 1 0-6.5h25.06a1.75 1.75 0 0 0 1.277-.553l15.9-16.961 28.748 30.663a1.749 1.749 0 0 0 2.553 0l12.328-13.149h28.634a3.25 3.25 0 0 1 0 6.5z"/></svg>