<svg id="Layer_2" height="512" viewBox="0 0 128 128" width="512" xmlns="http://www.w3.org/2000/svg" data-name="Layer 2"><path d="m35.25 105.542a12.792 12.792 0 1 0 -12.792 12.791 12.806 12.806 0 0 0 12.792-12.791zm-22.083 0a9.292 9.292 0 1 1 9.291 9.291 9.3 9.3 0 0 1 -9.291-9.291z"/><path d="m126.25 20.708h-81.408a22.455 22.455 0 0 0 -44.842 1.75v83.084a22.483 22.483 0 0 0 22.458 22.458h103.792a1.75 1.75 0 0 0 1.75-1.75v-103.792a1.75 1.75 0 0 0 -1.75-1.75zm-82.15 90.828a22.472 22.472 0 0 0 .819-5.994v-68.409h79.581v74.442h-80.413zm80.4-77.9h-79.583v-9.428h79.583zm-121-11.178a18.958 18.958 0 0 1 37.917 0v71.067a22.432 22.432 0 0 0 -37.917 0zm0 83.084a18.958 18.958 0 1 1 37.917 0 19.165 19.165 0 0 1 -18.959 18.958 18.98 18.98 0 0 1 -18.958-18.958zm121 18.958h-89.976a22.72 22.72 0 0 0 8.263-9.425h81.713z"/></svg>