<svg id="Layer_2" height="512" viewBox="0 0 128 128" width="512" xmlns="http://www.w3.org/2000/svg" data-name="Layer 2"><path d="m104.937 0h-59.249c-6.479 0-11.75 4.848-11.75 10.807v15.948h-10.875a11.763 11.763 0 0 0 -11.75 11.75v13.595a21.658 21.658 0 0 0 5.987 14.984l20.972 22.062.67 2.735v34.369a1.75 1.75 0 0 0 1.75 1.75h69.242a1.75 1.75 0 0 0 1.75-1.75v-34.369l4.954-20.235a1.757 1.757 0 0 0 .05-.416v-60.423c-.001-5.959-5.271-10.807-11.751-10.807zm-68.337 82.3-16.765-17.627a18.174 18.174 0 0 1 -5.022-12.573v-13.595a8.26 8.26 0 0 1 8.25-8.25h10.875v40.975a1.757 1.757 0 0 0 .05.416zm5.845 23.446h14.455v6.421h-14.459zm14.455-3.5h-14.459v-8.825h14.459zm-14.459 13.425h14.459v8.829h-14.459zm17.955-25a14.917 14.917 0 1 1 29.833 0v33.829h-13.166v-10.729l4.546 2.608a1.75 1.75 0 1 0 1.741-3.036l-4.52-2.593 4.52-2.593a1.75 1.75 0 1 0 -1.741-3.036l-4.546 2.608v-12.319l4.546 2.608a1.75 1.75 0 0 0 1.741-3.036l-4.52-2.593 4.52-2.589a1.75 1.75 0 0 0 -1.741-3.036l-6.3 3.612-6.3-3.612a1.75 1.75 0 1 0 -1.734 3.036l4.52 2.593-4.52 2.593a1.75 1.75 0 1 0 1.741 3.036l4.546-2.608v12.318l-4.546-2.608a1.75 1.75 0 1 0 -1.741 3.036l4.52 2.593-4.52 2.593a1.75 1.75 0 1 0 1.741 3.036l4.546-2.608v10.726h-13.162zm47.788 11.575h-14.455v-8.825h14.455zm0 9.921h-14.455v-6.417h14.455zm-14.455 12.333v-8.829h14.455v8.829zm19.458-53.481-4.627 18.9h-14.846a18.417 18.417 0 0 0 -36.8 0h-14.85l-.5-2.058-4.126-16.842v-60.212c0-4.029 3.7-7.307 8.25-7.307h59.25c4.549 0 8.25 3.278 8.25 7.307z"/></svg>